<svg width="2163" height="2141" viewBox="0 0 2163 2141" fill="none" xmlns="http://www.w3.org/2000/svg">
<path d="M1017.97 1505.51L685.476 1739L543.814 1273.18M2067.55 403L1176.61 1115.62L823.039 1398.42L685.476 1739M1017.97 1505.51L1424.81 1717.35L2067.55 403L96 1077.73L543.814 1273.18M543.814 1273.18L900.309 1060.17M96 1077.73L900.309 1060.17M900.309 1060.17L2067.55 403M823.039 1398.42L1017.97 1505.51M1424.81 1717.35L1176.61 1115.62" stroke="url(#paint0_linear_3_60)" stroke-width="18"/>
<g filter="url(#filter0_f_3_60)">
<path d="M998.146 1506.6L708.517 1709.99L828.347 1413.31L998.146 1506.6ZM1170.05 1107.42L816.48 1390.22L814.333 1391.93L813.304 1394.48L686.872 1707.5L556.248 1277.99L905.585 1069.25L1959.9 475.66L1170.05 1107.42ZM1404.12 1694.74L1022.94 1496.25L841.883 1396.79L1172.24 1132.56L1404.12 1694.74ZM1425.62 1691.78L1189.32 1118.9L2037.56 440.438L1425.62 1691.78ZM543.064 1261.4L143.915 1087.19L860.817 1071.54L543.064 1261.4ZM897.449 1049.73L163.414 1065.76L1962.71 449.979L897.449 1049.73Z" stroke="url(#paint1_linear_3_60)" stroke-width="21"/>
</g>
<g filter="url(#filter1_f_3_60)">
<path d="M2075.64 406.954L1432.89 1721.3L1428.84 1729.59L1420.65 1725.33L1018.67 1516.02L690.647 1746.37L680.48 1753.51L676.865 1741.62L536.41 1279.77L92.3994 1085.98L71.1738 1076.71L93.0859 1069.21L2064.64 394.484L2085.17 387.458L2075.64 406.954Z" stroke="url(#paint2_linear_3_60)" stroke-width="18"/>
</g>
<defs>
<filter id="filter0_f_3_60" x="63.8" y="370.8" width="2035.95" height="1400.4" filterUnits="userSpaceOnUse" color-interpolation-filters="sRGB">
<feFlood flood-opacity="0" result="BackgroundImageFix"/>
<feBlend mode="normal" in="SourceGraphic" in2="BackgroundImageFix" result="shape"/>
<feGaussianBlur stdDeviation="16.1" result="effect1_foregroundBlur_3_60"/>
</filter>
<filter id="filter1_f_3_60" x="14.3469" y="339.916" width="2120.44" height="1460.1" filterUnits="userSpaceOnUse" color-interpolation-filters="sRGB">
<feFlood flood-opacity="0" result="BackgroundImageFix"/>
<feBlend mode="normal" in="SourceGraphic" in2="BackgroundImageFix" result="shape"/>
<feGaussianBlur stdDeviation="16" result="effect1_foregroundBlur_3_60"/>
</filter>
<linearGradient id="paint0_linear_3_60" x1="2110.87" y1="825.511" x2="31.0409" y2="1070.86" gradientUnits="userSpaceOnUse">
<stop stop-color="#FFB592"/>
<stop offset="0.466346" stop-color="#ED8BF0"/>
<stop offset="0.644231" stop-color="#6AEBE7"/>
<stop offset="1" stop-color="#3B71C9"/>
</linearGradient>
<linearGradient id="paint1_linear_3_60" x1="2110.87" y1="825.511" x2="31.0409" y2="1070.86" gradientUnits="userSpaceOnUse">
<stop stop-color="#FDDF9F"/>
<stop offset="0.466346" stop-color="#ED8BF0"/>
<stop offset="0.644231" stop-color="#6AEBE7"/>
<stop offset="1" stop-color="#3B71C9"/>
</linearGradient>
<linearGradient id="paint2_linear_3_60" x1="2110.87" y1="825.511" x2="31.0409" y2="1070.86" gradientUnits="userSpaceOnUse">
<stop stop-color="#FDDF9F"/>
<stop offset="0.466346" stop-color="#ED8BF0"/>
<stop offset="0.644231" stop-color="#6AEBE7"/>
<stop offset="1" stop-color="#3B71C9"/>
</linearGradient>
</defs>
</svg>
